  0
SECTION
  2
HEADER
  9
$ACADVER
  1
AC1009
  9
$DWGCODEPAGE
  3
ansi_1252
  9
$INSBASE
 10
0.0
 20
0.0
 30
0.0
  9
$EXTMIN
 10
-6.0
 20
-10.0
 30
0.0
  9
$EXTMAX
 10
40.0
 20
10.0
 30
0.0
  9
$LIMMIN
 10
0.0
 20
0.0
  9
$LIMMAX
 10
420.0
 20
297.0
  9
$ORTHOMODE
 70
     0
  9
$REGENMODE
 70
     1
  9
$FILLMODE
 70
     1
  9
$QTEXTMODE
 70
     0
  9
$MIRRTEXT
 70
     1
  9
$DRAGMODE
 70
     2
  9
$LTSCALE
 40
1.0
  9
$OSMODE
 70
    37
  9
$ATTMODE
 70
     1
  9
$TEXTSIZE
 40
3.5
  9
$TRACEWID
 40
1.0
  9
$TEXTSTYLE
  7
STANDARD
  9
$CLAYER
  8
0
  9
$CELTYPE
  6
BYLAYER
  9
$CECOLOR
 62
   256
  9
$DIMSCALE
 40
1.0
  9
$DIMASZ
 40
3.302
  9
$DIMEXO
 40
1.27
  9
$DIMDLI
 40
3.75
  9
$DIMRND
 40
0.0
  9
$DIMDLE
 40
0.0
  9
$DIMEXE
 40
3.175
  9
$DIMTP
 40
0.0
  9
$DIMTM
 40
0.0
  9
$DIMTXT
 40
3.5
  9
$DIMCEN
 40
2.5
  9
$DIMTSZ
 40
0.0
  9
$DIMTOL
 70
     0
  9
$DIMLIM
 70
     0
  9
$DIMTIH
 70
     1
  9
$DIMTOH
 70
     1
  9
$DIMSE1
 70
     0
  9
$DIMSE2
 70
     0
  9
$DIMTAD
 70
     1
  9
$DIMZIN
 70
     1
  9
$DIMBLK
  1

  9
$DIMASO
 70
     1
  9
$DIMSHO
 70
     1
  9
$DIMPOST
  1

  9
$DIMAPOST
  1

  9
$DIMALT
 70
     0
  9
$DIMALTD
 70
     3
  9
$DIMALTF
 40
0.0393700787
  9
$DIMLFAC
 40
1.0
  9
$DIMTOFL
 70
     1
  9
$DIMTVP
 40
0.0
  9
$DIMTIX
 70
     0
  9
$DIMSOXD
 70
     0
  9
$DIMSAH
 70
     0
  9
$DIMBLK1
  1

  9
$DIMBLK2
  1

  9
$DIMSTYLE
  2
ISO-25
  9
$DIMCLRD
 70
     0
  9
$DIMCLRE
 70
     0
  9
$DIMCLRT
 70
     0
  9
$DIMTFAC
 40
1.0
  9
$DIMGAP
 40
1.524
  9
$LUNITS
 70
     2
  9
$LUPREC
 70
     4
  9
$SKETCHINC
 40
1.0
  9
$FILLETRAD
 40
10.0
  9
$AUNITS
 70
     0
  9
$AUPREC
 70
     2
  9
$MENU
  1
.
  9
$ELEVATION
 40
0.0
  9
$PELEVATION
 40
0.0
  9
$THICKNESS
 40
0.0
  9
$LIMCHECK
 70
     0
  9
$CHAMFERA
 40
0.0
  9
$CHAMFERB
 40
0.0
  9
$SKPOLY
 70
     0
  9
$TDCREATE
 40
2458881.813098067
  9
$TDUPDATE
 40
2458881.813123102
  9
$TDINDWG
 40
0.0000000116
  9
$TDUSRTIMER
 40
0.0000000116
  9
$USRTIMER
 70
     1
  9
$ANGBASE
 50
0.0
  9
$ANGDIR
 70
     0
  9
$PDMODE
 70
     0
  9
$PDSIZE
 40
-1.0
  9
$PLINEWID
 40
0.0
  9
$COORDS
 70
     1
  9
$SPLFRAME
 70
     0
  9
$SPLINETYPE
 70
     6
  9
$SPLINESEGS
 70
     8
  9
$ATTDIA
 70
     0
  9
$ATTREQ
 70
     1
  9
$HANDLING
 70
     1
  9
$HANDSEED
  5
D7
  9
$SURFTAB1
 70
     6
  9
$SURFTAB2
 70
     6
  9
$SURFTYPE
 70
     6
  9
$SURFU
 70
     6
  9
$SURFV
 70
     6
  9
$UCSNAME
  2

  9
$UCSORG
 10
0.0
 20
0.0
 30
0.0
  9
$UCSXDIR
 10
1.0
 20
0.0
 30
0.0
  9
$UCSYDIR
 10
0.0
 20
1.0
 30
0.0
  9
$PUCSNAME
  2

  9
$PUCSORG
 10
0.0
 20
0.0
 30
0.0
  9
$PUCSXDIR
 10
1.0
 20
0.0
 30
0.0
  9
$PUCSYDIR
 10
0.0
 20
1.0
 30
0.0
  9
$USERI1
 70
     0
  9
$USERI2
 70
     0
  9
$USERI3
 70
     0
  9
$USERI4
 70
     0
  9
$USERI5
 70
     0
  9
$USERR1
 40
0.0
  9
$USERR2
 40
0.0
  9
$USERR3
 40
0.0
  9
$USERR4
 40
0.0
  9
$USERR5
 40
0.0
  9
$WORLDVIEW
 70
     1
  9
$SHADEDGE
 70
     3
  9
$SHADEDIF
 70
    70
  9
$TILEMODE
 70
     1
  9
$MAXACTVP
 70
    64
  9
$PLIMCHECK
 70
     0
  9
$PEXTMIN
 10
1.0000000000E+20
 20
1.0000000000E+20
 30
1.0000000000E+20
  9
$PEXTMAX
 10
-1.0000000000E+20
 20
-1.0000000000E+20
 30
-1.0000000000E+20
  9
$PLIMMIN
 10
0.0
 20
0.0
  9
$PLIMMAX
 10
420.0
 20
297.0
  9
$UNITMODE
 70
     0
  9
$VISRETAIN
 70
     1
  9
$PLINEGEN
 70
     0
  9
$PSLTSCALE
 70
     1
  0
ENDSEC
  0
SECTION
  2
TABLES
  0
TABLE
  2
VPORT
 70
     1
  0
VPORT
  2
*ACTIVE
 70
     0
 10
0.0
 20
0.0
 11
1.0
 21
1.0
 12
17.0
 22
0.0
 13
0.0
 23
0.0
 14
10.0
 24
10.0
 15
10.0
 25
10.0
 16
0.0
 26
0.0
 36
1.0
 17
0.0
 27
0.0
 37
0.0
 40
20.4
 41
2.3
 42
50.0
 43
0.0
 44
0.0
 50
0.0
 51
0.0
 71
     0
 72
   100
 73
     1
 74
     3
 75
     0
 76
     0
 77
     0
 78
     0
  0
ENDTAB
  0
TABLE
  2
LTYPE
 70
     6
  0
LTYPE
  2
CONTINUOUS
 70
     0
  3
Solid line
 72
    65
 73
     0
 40
0.0
  0
LTYPE
  2
HIDDEN
 70
     0
  3
Hidden __ __ __ __ __ __ __ __ __ __ __ __ __ __
 72
    65
 73
     2
 40
1.905
 49
1.27
 49
-0.635
  0
LTYPE
  2
PHANTOM
 70
     0
  3
Phantom ______  __  __  ______  __  __  ______
 72
    65
 73
     6
 40
12.7
 49
6.35
 49
-1.27
 49
1.27
 49
-1.27
 49
1.27
 49
-1.27
  0
LTYPE
  2
CENTER
 70
     0
  3
Center ____ _ ____ _ ____ _ ____ _ ____ _ ____
 72
    65
 73
     4
 40
10.16
 49
6.35
 49
-1.27
 49
1.27
 49
-1.27
  0
LTYPE
  2
CENTERX2
 70
     0
  3
Center (2x) ________  __  ________  __  _____
 72
    65
 73
     4
 40
20.32
 49
12.7
 49
-2.54
 49
2.54
 49
-2.54
  0
LTYPE
  2
DOT2
 70
     0
  3
Dot (.5x) ........................................
 72
    65
 73
     2
 40
0.635
 49
0.0
 49
-0.635
  0
ENDTAB
  0
TABLE
  2
LAYER
 70
     1
  0
LAYER
  2
0
 70
     0
 62
     7
  6
CONTINUOUS
  0
ENDTAB
  0
TABLE
  2
STYLE
 70
     1
  0
STYLE
  2
STANDARD
 70
     0
 40
0.0
 41
1.0
 50
0.0
 71
     0
 42
3.5
  3
txt
  4

  0
ENDTAB
  0
TABLE
  2
VIEW
 70
     0
  0
ENDTAB
  0
TABLE
  2
UCS
 70
     0
  0
ENDTAB
  0
TABLE
  2
APPID
 70
     1
  0
APPID
  2
ACAD
 70
     0
  0
ENDTAB
  0
TABLE
  2
DIMSTYLE
 70
     1
  0
DIMSTYLE
  2
ISO-25
 70
     0
  3

  4

  5

  6

  7

 40
1.0
 41
2.5
 42
0.625
 43
3.75
 44
1.25
 45
0.0
 46
0.0
 47
0.0
 48
0.0
140
2.5
141
2.5
142
0.0
143
0.0393700787
144
1.0
145
0.0
146
1.0
147
0.625
 71
     0
 72
     0
 73
     0
 74
     0
 75
     0
 76
     0
 77
     1
 78
     8
170
     0
171
     3
172
     1
173
     0
174
     0
175
     0
176
     0
177
     0
178
     0
  0
ENDTAB
  0
ENDSEC
  0
SECTION
  2
BLOCKS
  0
BLOCK
  8
0
  2
$MODEL_SPACE
 70
     0
 10
0.0
 20
0.0
 30
0.0
  3
$MODEL_SPACE
  1

  0
ENDBLK
  5
21
  8
0
  0
BLOCK
 67
     1
  8
0
  2
$PAPER_SPACE
 70
     0
 10
0.0
 20
0.0
 30
0.0
  3
$PAPER_SPACE
  1

  0
ENDBLK
  5
1D
 67
     1
  8
0
  0
ENDSEC
  0
SECTION
  2
ENTITIES
  0
LINE
  5
73
  8
0
  6
CONTINUOUS
 62
     7
 10
37.0
 20
-8.0
 30
0.0
 11
37.0
 21
-9.5
 31
0.0
  0
ARC
  5
74
  8
0
  6
CONTINUOUS
 62
     7
 10
37.5
 20
-9.5
 30
0.0
 40
0.5
 50
180.0
 51
270.0
  0
LINE
  5
75
  8
0
  6
CONTINUOUS
 62
     7
 10
37.5
 20
-10.0
 30
0.0
 11
39.0
 21
-10.0
 31
0.0
  0
ARC
  5
76
  8
0
  6
CONTINUOUS
 62
     7
 10
39.0
 20
-9.0
 30
0.0
 40
1.0
 50
270.0
 51
0.0
  0
LINE
  5
77
  8
0
  6
CONTINUOUS
 62
     7
 10
40.0
 20
-9.0
 30
0.0
 11
40.0
 21
9.0
 31
0.0
  0
ARC
  5
78
  8
0
  6
CONTINUOUS
 62
     7
 10
39.0
 20
9.0
 30
0.0
 40
1.0
 50
0.0
 51
90.0
  0
LINE
  5
79
  8
0
  6
CONTINUOUS
 62
     7
 10
39.0
 20
10.0
 30
0.0
 11
37.5
 21
10.0
 31
0.0
  0
ARC
  5
7A
  8
0
  6
CONTINUOUS
 62
     7
 10
37.5
 20
9.5
 30
0.0
 40
0.5
 50
90.0
 51
180.0
  0
LINE
  5
7B
  8
0
  6
CONTINUOUS
 62
     7
 10
37.0
 20
9.5
 30
0.0
 11
37.0
 21
8.0
 31
0.0
  0
LINE
  5
7C
  8
0
  6
CONTINUOUS
 62
     7
 10
37.0
 20
8.0
 30
0.0
 11
33.0
 21
8.0
 31
0.0
  0
LINE
  5
7D
  8
0
  6
CONTINUOUS
 62
     7
 10
33.0
 20
8.0
 30
0.0
 11
33.0
 21
9.5
 31
0.0
  0
ARC
  5
7E
  8
0
  6
CONTINUOUS
 62
     7
 10
32.5
 20
9.5
 30
0.0
 40
0.5
 50
0.0
 51
90.0
  0
LINE
  5
7F
  8
0
  6
CONTINUOUS
 62
     7
 10
32.5
 20
10.0
 30
0.0
 11
30.0
 21
10.0
 31
0.0
  0
ARC
  5
80
  8
0
  6
CONTINUOUS
 62
     7
 10
30.0
 20
9.5
 30
0.0
 40
0.5000000000000018
 50
90.0
 51
180.0
  0
LINE
  5
81
  8
0
  6
CONTINUOUS
 62
     7
 10
29.5
 20
9.5
 30
0.0
 11
29.5
 21
8.0
 31
0.0
  0
LINE
  5
82
  8
0
  6
CONTINUOUS
 62
     7
 10
29.5
 20
8.0
 30
0.0
 11
25.5
 21
8.0
 31
0.0
  0
LINE
  5
83
  8
0
  6
CONTINUOUS
 62
     7
 10
25.5
 20
8.0
 30
0.0
 11
25.5
 21
9.5
 31
0.0
  0
ARC
  5
84
  8
0
  6
CONTINUOUS
 62
     7
 10
25.0
 20
9.5
 30
0.0
 40
0.5000000000000036
 50
0.0
 51
90.0
  0
LINE
  5
85
  8
0
  6
CONTINUOUS
 62
     7
 10
25.0
 20
10.0
 30
0.0
 11
22.5
 21
10.0
 31
0.0
  0
ARC
  5
86
  8
0
  6
CONTINUOUS
 62
     7
 10
22.5
 20
9.5
 30
0.0
 40
0.5
 50
90.0
 51
180.0
  0
LINE
  5
87
  8
0
  6
CONTINUOUS
 62
     7
 10
22.0
 20
9.5
 30
0.0
 11
22.0
 21
8.0
 31
0.0
  0
LINE
  5
88
  8
0
  6
CONTINUOUS
 62
     7
 10
22.0
 20
8.0
 30
0.0
 11
18.0
 21
8.0
 31
0.0
  0
LINE
  5
89
  8
0
  6
CONTINUOUS
 62
     7
 10
18.0
 20
8.0
 30
0.0
 11
18.0
 21
9.5
 31
0.0
  0
ARC
  5
8A
  8
0
  6
CONTINUOUS
 62
     7
 10
17.5
 20
9.5
 30
0.0
 40
0.5
 50
0.0
 51
90.0
  0
LINE
  5
8B
  8
0
  6
CONTINUOUS
 62
     7
 10
17.5
 20
10.0
 30
0.0
 11
15.0
 21
10.0
 31
0.0
  0
ARC
  5
8C
  8
0
  6
CONTINUOUS
 62
     7
 10
15.0
 20
-0.6735122751
 30
0.0
 40
10.67351227513765
 50
90.0
 51
122.8539971434
  0
ARC
  5
8D
  8
0
  6
CONTINUOUS
 62
     7
 10
2.3798194317
 20
18.8687032892
 30
0.0
 40
12.58948724637498
 50
275.0
 51
302.8539971434
  0
LINE
  5
8E
  8
0
  6
CONTINUOUS
 62
     7
 10
3.4770655435
 20
6.3271228427
 30
0.0
 11
-0.5229344565
 21
5.9771681886
 31
0.0
  0
ARC
  5
8F
  8
0
  6
CONTINUOUS
 62
     7
 10
0.0
 20
0.0
 30
0.0
 40
5.999999999999997
 50
95.0
 51
265.0
  0
LINE
  5
90
  8
0
  6
CONTINUOUS
 62
     7
 10
-0.5229344565
 20
-5.9771681886
 30
0.0
 11
3.4770655435
 21
-6.3271228427
 31
0.0
  0
ARC
  5
91
  8
0
  6
CONTINUOUS
 62
     7
 10
2.3798194317
 20
-18.8687032892
 30
0.0
 40
12.58948724637498
 50
57.1460028566
 51
85.0
  0
ARC
  5
92
  8
0
  6
CONTINUOUS
 62
     7
 10
15.0
 20
0.6735122751
 30
0.0
 40
10.67351227513765
 50
237.1460028566
 51
270.0
  0
LINE
  5
93
  8
0
  6
CONTINUOUS
 62
     7
 10
15.0
 20
-10.0
 30
0.0
 11
17.5
 21
-10.0
 31
0.0
  0
ARC
  5
94
  8
0
  6
CONTINUOUS
 62
     7
 10
17.5
 20
-9.5
 30
0.0
 40
0.5
 50
270.0
 51
0.0
  0
LINE
  5
95
  8
0
  6
CONTINUOUS
 62
     7
 10
18.0
 20
-9.5
 30
0.0
 11
18.0
 21
-8.0
 31
0.0
  0
LINE
  5
96
  8
0
  6
CONTINUOUS
 62
     7
 10
18.0
 20
-8.0
 30
0.0
 11
22.0
 21
-8.0
 31
0.0
  0
LINE
  5
97
  8
0
  6
CONTINUOUS
 62
     7
 10
22.0
 20
-8.0
 30
0.0
 11
22.0
 21
-9.5
 31
0.0
  0
ARC
  5
98
  8
0
  6
CONTINUOUS
 62
     7
 10
22.5
 20
-9.5
 30
0.0
 40
0.5
 50
180.0
 51
270.0
  0
LINE
  5
99
  8
0
  6
CONTINUOUS
 62
     7
 10
22.5
 20
-10.0
 30
0.0
 11
25.0
 21
-10.0
 31
0.0
  0
ARC
  5
9A
  8
0
  6
CONTINUOUS
 62
     7
 10
25.0
 20
-9.5
 30
0.0
 40
0.5000000000000036
 50
270.0
 51
0.0
  0
LINE
  5
9B
  8
0
  6
CONTINUOUS
 62
     7
 10
25.5
 20
-9.5
 30
0.0
 11
25.5
 21
-8.0
 31
0.0
  0
LINE
  5
9C
  8
0
  6
CONTINUOUS
 62
     7
 10
25.5
 20
-8.0
 30
0.0
 11
29.5
 21
-8.0
 31
0.0
  0
LINE
  5
9D
  8
0
  6
CONTINUOUS
 62
     7
 10
29.5
 20
-8.0
 30
0.0
 11
29.5
 21
-9.5
 31
0.0
  0
ARC
  5
9E
  8
0
  6
CONTINUOUS
 62
     7
 10
30.0
 20
-9.5
 30
0.0
 40
0.5000000000000018
 50
180.0
 51
270.0
  0
LINE
  5
9F
  8
0
  6
CONTINUOUS
 62
     7
 10
30.0
 20
-10.0
 30
0.0
 11
32.5
 21
-10.0
 31
0.0
  0
ARC
  5
A0
  8
0
  6
CONTINUOUS
 62
     7
 10
32.5
 20
-9.5
 30
0.0
 40
0.5
 50
270.0
 51
0.0
  0
LINE
  5
A1
  8
0
  6
CONTINUOUS
 62
     7
 10
33.0
 20
-9.5
 30
0.0
 11
33.0
 21
-8.0
 31
0.0
  0
LINE
  5
A2
  8
0
  6
CONTINUOUS
 62
     7
 10
33.0
 20
-8.0
 30
0.0
 11
37.0
 21
-8.0
 31
0.0
  0
LINE
  5
A3
  8
0
  6
CONTINUOUS
 62
     7
 10
0.0
 20
2.895
 30
0.0
 11
-0.3321330689
 21
2.6291039585
 31
0.0
  0
LINE
  5
A4
  8
0
  6
CONTINUOUS
 62
     7
 10
0.3321330689
 20
2.6291039585
 30
0.0
 11
0.0
 21
2.895
 31
0.0
  0
LINE
  5
A5
  8
0
  6
CONTINUOUS
 62
     7
 10
0.7199572233
 20
2.8040482515
 30
0.0
 11
0.3321330689
 21
2.6291039585
 31
0.0
  0
LINE
  5
A6
  8
0
  6
CONTINUOUS
 62
     7
 10
0.9755300646
 20
2.4639076876
 30
0.0
 11
0.7199572233
 21
2.8040482515
 31
0.0
  0
LINE
  5
A7
  8
0
  6
CONTINUOUS
 62
     7
 10
1.3946768865
 20
2.5369078387
 30
0.0
 11
0.9755300646
 21
2.4639076876
 31
0.0
  0
LINE
  5
A8
  8
0
  6
CONTINUOUS
 62
     7
 10
1.5576309186
 20
2.1438950351
 30
0.0
 11
1.3946768865
 21
2.5369078387
 31
0.0
  0
LINE
  5
A9
  8
0
  6
CONTINUOUS
 62
     7
 10
1.9817638717
 20
2.1103641764
 30
0.0
 11
1.5576309186
 21
2.1438950351
 31
0.0
  0
LINE
  5
AA
  8
0
  6
CONTINUOUS
 62
     7
 10
2.0418600934
 20
1.6891735728
 30
0.0
 11
1.9817638717
 21
2.1103641764
 31
0.0
  0
LINE
  5
AB
  8
0
  6
CONTINUOUS
 62
     7
 10
2.4443293443
 20
1.5512185715
 30
0.0
 11
2.0418600934
 21
1.6891735728
 31
0.0
  0
LINE
  5
AC
  8
0
  6
CONTINUOUS
 62
     7
 10
2.397791689
 20
1.1283151226
 30
0.0
 11
2.4443293443
 21
1.5512185715
 31
0.0
  0
LINE
  5
AD
  8
0
  6
CONTINUOUS
 62
     7
 10
2.7533086147
 20
0.8946041987
 30
0.0
 11
2.397791689
 21
1.1283151226
 31
0.0
  0
LINE
  5
AE
  8
0
  6
CONTINUOUS
 62
     7
 10
2.6030612144
 20
0.4965604837
 30
0.0
 11
2.7533086147
 21
0.8946041987
 31
0.0
  0
LINE
  5
AF
  8
0
  6
CONTINUOUS
 62
     7
 10
2.8892873788
 20
0.181778554
 30
0.0
 11
2.6030612144
 21
0.4965604837
 31
0.0
  0
LINE
  5
B0
  8
0
  6
CONTINUOUS
 62
     7
 10
2.6447708303
 20
-0.1663948768
 30
0.0
 11
2.8892873788
 21
0.181778554
 31
0.0
  0
LINE
  5
B1
  8
0
  6
CONTINUOUS
 62
     7
 10
2.8437215909
 20
-0.5424689057
 30
0.0
 11
2.6447708303
 21
-0.1663948768
 31
0.0
  0
LINE
  5
B2
  8
0
  6
CONTINUOUS
 62
     7
 10
2.5202997682
 20
-0.8188950351
 30
0.0
 11
2.8437215909
 21
-0.5424689057
 31
0.0
  0
LINE
  5
B3
  8
0
  6
CONTINUOUS
 62
     7
 10
2.6194743169
 20
-1.2326310491
 30
0.0
 11
2.5202997682
 21
-0.8188950351
 31
0.0
  0
LINE
  5
B4
  8
0
  6
CONTINUOUS
 62
     7
 10
2.2374690026
 20
-1.4199410067
 30
0.0
 11
2.6194743169
 21
-1.2326310491
 31
0.0
  0
LINE
  5
B5
  8
0
  6
CONTINUOUS
 62
     7
 10
2.2306358378
 20
-1.8453424503
 30
0.0
 11
2.2374690026
 21
-1.4199410067
 31
0.0
  0
LINE
  5
B6
  8
0
  6
CONTINUOUS
 62
     7
 10
1.8140498307
 20
-1.9317668627
 30
0.0
 11
2.2306358378
 21
-1.8453424503
 31
0.0
  0
LINE
  5
B7
  8
0
  6
CONTINUOUS
 62
     7
 10
1.7016383054
 20
-2.3421041987
 30
0.0
 11
1.8140498307
 21
-1.9317668627
 31
0.0
  0
LINE
  5
B8
  8
0
  6
CONTINUOUS
 62
     7
 10
1.2766472364
 20
-2.3222127021
 30
0.0
 11
1.7016383054
 21
-2.3421041987
 31
0.0
  0
LINE
  5
B9
  8
0
  6
CONTINUOUS
 62
     7
 10
1.06572058
 20
-2.6917029266
 30
0.0
 11
1.2766472364
 21
-2.3222127021
 31
0.0
  0
LINE
  5
BA
  8
0
  6
CONTINUOUS
 62
     7
 10
0.659028201
 20
-2.566745377
 30
0.0
 11
1.06572058
 21
-2.6917029266
 31
0.0
  0
LINE
  5
BB
  8
0
  6
CONTINUOUS
 62
     7
 10
0.3628397112
 20
-2.8721720603
 30
0.0
 11
0.659028201
 21
-2.566745377
 31
0.0
  0
LINE
  5
BC
  8
0
  6
CONTINUOUS
 62
     7
 10
0.0
 20
-2.65
 30
0.0
 11
0.3628397112
 21
-2.8721720603
 31
0.0
  0
LINE
  5
BD
  8
0
  6
CONTINUOUS
 62
     7
 10
-0.3628397112
 20
-2.8721720603
 30
0.0
 11
0.0
 21
-2.65
 31
0.0
  0
LINE
  5
BE
  8
0
  6
CONTINUOUS
 62
     7
 10
-0.659028201
 20
-2.566745377
 30
0.0
 11
-0.3628397112
 21
-2.8721720603
 31
0.0
  0
LINE
  5
BF
  8
0
  6
CONTINUOUS
 62
     7
 10
-1.06572058
 20
-2.6917029266
 30
0.0
 11
-0.659028201
 21
-2.566745377
 31
0.0
  0
LINE
  5
C0
  8
0
  6
CONTINUOUS
 62
     7
 10
-1.2766472364
 20
-2.3222127021
 30
0.0
 11
-1.06572058
 21
-2.6917029266
 31
0.0
  0
LINE
  5
C1
  8
0
  6
CONTINUOUS
 62
     7
 10
-1.7016383054
 20
-2.3421041987
 30
0.0
 11
-1.2766472364
 21
-2.3222127021
 31
0.0
  0
LINE
  5
C2
  8
0
  6
CONTINUOUS
 62
     7
 10
-1.8140498307
 20
-1.9317668627
 30
0.0
 11
-1.7016383054
 21
-2.3421041987
 31
0.0
  0
LINE
  5
C3
  8
0
  6
CONTINUOUS
 62
     7
 10
-2.2306358378
 20
-1.8453424503
 30
0.0
 11
-1.8140498307
 21
-1.9317668627
 31
0.0
  0
LINE
  5
C4
  8
0
  6
CONTINUOUS
 62
     7
 10
-2.2374690026
 20
-1.4199410067
 30
0.0
 11
-2.2306358378
 21
-1.8453424503
 31
0.0
  0
LINE
  5
C5
  8
0
  6
CONTINUOUS
 62
     7
 10
-2.6194743169
 20
-1.2326310491
 30
0.0
 11
-2.2374690026
 21
-1.4199410067
 31
0.0
  0
LINE
  5
C6
  8
0
  6
CONTINUOUS
 62
     7
 10
-2.5202997682
 20
-0.8188950351
 30
0.0
 11
-2.6194743169
 21
-1.2326310491
 31
0.0
  0
LINE
  5
C7
  8
0
  6
CONTINUOUS
 62
     7
 10
-2.8437215909
 20
-0.5424689057
 30
0.0
 11
-2.5202997682
 21
-0.8188950351
 31
0.0
  0
LINE
  5
C8
  8
0
  6
CONTINUOUS
 62
     7
 10
-2.6447708303
 20
-0.1663948768
 30
0.0
 11
-2.8437215909
 21
-0.5424689057
 31
0.0
  0
LINE
  5
C9
  8
0
  6
CONTINUOUS
 62
     7
 10
-2.8892873788
 20
0.181778554
 30
0.0
 11
-2.6447708303
 21
-0.1663948768
 31
0.0
  0
LINE
  5
CA
  8
0
  6
CONTINUOUS
 62
     7
 10
-2.6030612144
 20
0.4965604837
 30
0.0
 11
-2.8892873788
 21
0.181778554
 31
0.0
  0
LINE
  5
CB
  8
0
  6
CONTINUOUS
 62
     7
 10
-2.7533086147
 20
0.8946041987
 30
0.0
 11
-2.6030612144
 21
0.4965604837
 31
0.0
  0
LINE
  5
CC
  8
0
  6
CONTINUOUS
 62
     7
 10
-2.397791689
 20
1.1283151226
 30
0.0
 11
-2.7533086147
 21
0.8946041987
 31
0.0
  0
LINE
  5
CD
  8
0
  6
CONTINUOUS
 62
     7
 10
-2.4443293443
 20
1.5512185715
 30
0.0
 11
-2.397791689
 21
1.1283151226
 31
0.0
  0
LINE
  5
CE
  8
0
  6
CONTINUOUS
 62
     7
 10
-2.0418600934
 20
1.6891735728
 30
0.0
 11
-2.4443293443
 21
1.5512185715
 31
0.0
  0
LINE
  5
CF
  8
0
  6
CONTINUOUS
 62
     7
 10
-1.9817638717
 20
2.1103641764
 30
0.0
 11
-2.0418600934
 21
1.6891735728
 31
0.0
  0
LINE
  5
D0
  8
0
  6
CONTINUOUS
 62
     7
 10
-1.5576309186
 20
2.1438950351
 30
0.0
 11
-1.9817638717
 21
2.1103641764
 31
0.0
  0
LINE
  5
D1
  8
0
  6
CONTINUOUS
 62
     7
 10
-1.3946768865
 20
2.5369078387
 30
0.0
 11
-1.5576309186
 21
2.1438950351
 31
0.0
  0
LINE
  5
D2
  8
0
  6
CONTINUOUS
 62
     7
 10
-0.9755300646
 20
2.4639076876
 30
0.0
 11
-1.3946768865
 21
2.5369078387
 31
0.0
  0
LINE
  5
D3
  8
0
  6
CONTINUOUS
 62
     7
 10
-0.7199572233
 20
2.8040482515
 30
0.0
 11
-0.9755300646
 21
2.4639076876
 31
0.0
  0
LINE
  5
D4
  8
0
  6
CONTINUOUS
 62
     7
 10
-0.3321330689
 20
2.6291039585
 30
0.0
 11
-0.7199572233
 21
2.8040482515
 31
0.0
  0
TEXT
  5
D5
  8
0
  6
CONTINUOUS
 62
     7
 10
-6.0
 20
-15.5429050995
 30
0.0
 40
4.83362
  1
SOLIDWORKS Educational Product.
 41
0.6774193548
 11
-6.0
 21
-17.25043
 31
0.0
 73
     1
  0
TEXT
  5
D6
  8
0
  6
CONTINUOUS
 62
     7
 10
-6.0
 20
-22.7933350995
 30
0.0
 40
4.83362
  1
For Instructional Use Only.
 41
0.6611111111
 11
-6.0
 21
-24.50086
 31
0.0
 73
     1
  0
ENDSEC
  0
EOF
